<?xml version="1.0" standalone="no"?>
<!DOCTYPE svg PUBLIC "-//W3C//DTD SVG 20010904//EN"
 "http://www.w3.org/TR/2001/REC-SVG-20010904/DTD/svg10.dtd">
<svg version="1.0" xmlns="http://www.w3.org/2000/svg"
 width="152.000000pt" height="152.000000pt" viewBox="0 0 152.000000 152.000000"
 preserveAspectRatio="xMidYMid meet">
<metadata>
Created by potrace 1.14, written by Peter Selinger 2001-2017
</metadata>
<g transform="translate(0.000000,152.000000) scale(0.100000,-0.100000)"
fill="#000000" stroke="none">
<path d="M680 1313 c0 -7 6 -13 14 -13 10 0 16 -13 18 -42 4 -59 28 -63 28 -4
0 34 4 46 15 46 8 0 15 7 15 15 0 12 -10 15 -45 14 -29 -2 -45 -7 -45 -16z"/>
<path d="M806 1321 c-3 -4 -8 -30 -11 -58 l-7 -50 32 -7 c49 -9 60 -8 54 9 -4
8 -17 15 -30 15 -13 0 -24 5 -24 10 0 6 14 10 30 10 36 0 40 15 5 24 -36 9
-31 27 5 20 38 -8 41 13 3 22 -16 3 -33 7 -40 9 -7 2 -14 1 -17 -4z"/>
<path d="M591 1310 c-31 -7 -40 -30 -12 -30 16 0 22 -8 27 -40 4 -26 12 -40
21 -40 12 0 14 9 9 44 -6 35 -4 45 9 50 9 3 14 10 10 15 -6 10 -25 11 -64 1z"/>
<path d="M907 1253 c-21 -58 -21 -63 -3 -63 8 0 17 12 21 27 6 27 7 27 25 -15
11 -23 23 -42 27 -42 15 0 46 101 34 113 -7 7 -14 -1 -23 -23 l-14 -33 -12 41
c-7 23 -18 42 -25 42 -7 0 -21 -21 -30 -47z"/>
<path d="M487 1273 c-10 -16 -6 -123 4 -123 6 0 13 9 16 20 6 24 39 36 58 20
10 -8 15 -8 21 1 4 7 -10 27 -35 50 -42 39 -56 46 -64 32z m43 -47 c0 -3 -4
-8 -10 -11 -5 -3 -10 -1 -10 4 0 6 5 11 10 11 6 0 10 -2 10 -4z"/>
<path d="M1046 1225 c-53 -82 -51 -72 -17 -93 38 -23 74 -18 91 13 17 32 10
54 -26 82 l-31 24 -17 -26z m48 -62 c-13 -21 -25 -25 -43 -14 -11 7 -10 13 4
35 17 25 19 26 34 11 12 -11 13 -20 5 -32z"/>
<path d="M345 1189 c-4 -5 -4 -21 -1 -34 6 -23 5 -24 -20 -15 -27 10 -44 6
-44 -11 0 -20 73 -90 84 -79 6 6 4 16 -7 28 -23 25 -21 31 5 24 18 -4 20 -2
16 16 -8 27 -1 28 20 2 11 -12 22 -17 30 -12 9 6 3 19 -24 50 -37 43 -48 49
-59 31z"/>
<path d="M634 1141 c-249 -60 -407 -317 -349 -568 53 -229 270 -389 501 -369
197 17 358 146 419 335 19 59 14 71 -36 71 -21 0 -28 -6 -32 -29 -17 -85 -100
-198 -180 -244 -206 -121 -461 -43 -568 173 -27 56 -33 78 -35 153 -4 98 15
168 67 243 63 93 176 159 289 170 36 3 68 8 73 11 4 2 7 19 7 36 0 31 -2 32
-43 33 -23 1 -74 -6 -113 -15z"/>
<path d="M1140 1120 c-50 -20 -64 -40 -26 -40 26 0 40 -14 41 -42 0 -36 21
-21 42 32 30 76 24 82 -57 50z m40 -24 c0 -3 -4 -8 -10 -11 -5 -3 -10 -1 -10
4 0 6 5 11 10 11 6 0 10 -2 10 -4z"/>
<path d="M225 1063 c-14 -15 -25 -33 -25 -39 0 -12 73 -64 90 -64 13 0 13 17
0 25 -18 11 -11 24 15 27 14 2 25 8 24 13 0 6 -5 9 -10 8 -4 -2 -13 6 -19 17
-6 11 -19 24 -30 30 -15 8 -24 5 -45 -17z m43 -25 c-3 -7 -12 -14 -21 -16 -12
-2 -15 1 -11 12 7 19 38 22 32 4z"/>
<path d="M1223 1032 c-24 -15 -43 -33 -43 -39 0 -17 11 -16 40 4 23 16 23 16
16 -3 -13 -35 -19 -74 -10 -74 19 0 94 46 94 57 0 16 -15 16 -41 3 -22 -12
-24 -5 -5 29 13 24 12 51 -3 51 -3 0 -25 -13 -48 -28z"/>
<path d="M758 1038 c-9 -25 -3 -151 7 -155 6 -2 10 28 9 77 -1 78 -7 105 -16
78z"/>
<path d="M155 948 c-9 -22 -15 -41 -13 -42 2 -1 24 -11 50 -23 l46 -22 15 23
c21 31 25 58 10 63 -7 3 -13 1 -13 -4 0 -5 -7 -18 -15 -29 -15 -18 -16 -17
-10 14 8 37 -8 43 -26 10 -7 -13 -14 -18 -16 -11 -3 7 0 21 6 31 8 15 7 21 -3
25 -10 4 -20 -8 -31 -35z"/>
<path d="M1290 922 c-40 -14 -55 -77 -25 -102 23 -19 37 -2 19 24 -13 21 -13
25 1 40 20 20 55 5 55 -24 0 -27 17 -34 25 -10 13 39 -35 85 -75 72z"/>
<path d="M120 856 c0 -9 13 -18 36 -22 33 -6 54 -27 41 -41 -6 -6 -36 -6 -71
-1 -34 5 -28 -20 6 -28 44 -10 70 -6 86 14 29 38 3 73 -65 87 -26 5 -33 3 -33
-9z"/>
<path d="M939 806 c-49 -13 -118 -57 -163 -105 -35 -37 -39 -37 -77 -10 -16
11 -29 18 -29 15 0 -12 55 -116 61 -116 4 0 14 12 24 26 24 37 101 111 147
141 21 15 60 32 85 38 40 10 43 13 21 17 -14 2 -45 0 -69 -6z"/>
<path d="M1358 805 c-1 -1 -20 -5 -41 -8 -21 -3 -40 -7 -43 -10 -8 -7 8 -87
17 -87 5 0 9 16 9 35 0 38 17 48 22 13 2 -12 9 -23 17 -26 10 -3 13 2 9 22 -4
17 -1 25 6 23 6 -2 12 -15 14 -30 2 -17 8 -24 16 -21 10 4 11 15 6 39 -4 19
-6 36 -3 38 5 5 -23 17 -29 12z"/>
<path d="M378 689 c-14 -10 -7 -11 72 -11 76 0 94 2 86 9 -10 11 -142 12 -158
2z"/>
<path d="M759 459 c-1 -2 -2 -39 -3 -82 -2 -51 1 -76 8 -74 11 4 12 144 2 155
-3 3 -7 3 -7 1z"/>
</g>
</svg>
